<?xml version='1.0' encoding='iso-8859-1'?>
<!DOCTYPE svg PUBLIC '-//W3C//DTD SVG 1.1//EN' 'http://www.w3.org/Graphics/SVG/1.1/DTD/svg11.dtd'>
<svg version="1.1" xmlns="http://www.w3.org/2000/svg" viewBox="0 0 310.088 310.088" xmlns:xlink="http://www.w3.org/1999/xlink" enable-background="new 0 0 310.088 310.088">
  <g>
    <path d="m299.85,250.413l-62.808-62.808c-3.982-3.982-10.437-3.982-14.418,0l-3.539,3.539-18.586-18.586c29.709-42.872 25.472-102.152-12.716-140.34-42.958-42.958-112.606-42.958-155.563,0s-42.958,112.606 0,155.563c38.189,38.188 97.468,42.425 140.34,12.716l18.586,18.586-3.539,3.539c-3.982,3.981-3.982,10.437 0,14.418l62.808,62.808c13.651,13.651 35.785,13.651 49.436,0s13.65-35.784-0.001-49.435zm-251.368-78.895c-33.921-33.921-33.921-89.115-0.001-123.036 33.922-33.921 89.117-33.922 123.037-0.001v0.001c33.922,33.921 33.922,89.115 0,123.036-16.96,16.961-39.239,25.441-61.518,25.441-22.279,0-44.558-8.48-61.518-25.441z"/>
  </g>
</svg>
