<?xml version="1.0" encoding="iso-8859-1"?>
<!-- Generator: Adobe Illustrator 19.0.0, SVG Export Plug-In . SVG Version: 6.00 Build 0)  -->
<svg version="1.1" id="Capa_1" xmlns="http://www.w3.org/2000/svg" xmlns:xlink="http://www.w3.org/1999/xlink" x="0px" y="0px"
	 viewBox="0 0 223.789 223.789" fill="white" style="enable-background:new 0 0 223.789 223.789;" xml:space="preserve">
<g>
	<path d="M206.67,63.96L62.635,36.525L58.46,14.607C57.24,8.182,51.58,3.519,45.001,3.519H12.5C5.597,3.519,0,9.116,0,16.019
		s5.597,12.5,12.5,12.5h23.161l4.641,24.364c0.027,0.195,15.359,90.667,15.359,90.667c1.774,10.46,11.841,18.97,22.439,18.97
		h117.062c10.715,0,20.474-8.664,21.753-19.313l6.73-56.03C224.938,76.404,217.323,65.99,206.67,63.96z"/>
	<path d="M82.734,175.672c-12.295,0-22.298,10.003-22.298,22.299s10.003,22.299,22.298,22.299c12.296,0,22.299-10.003,22.299-22.299
		S95.03,175.672,82.734,175.672z"/>
	<path d="M180.887,175.672c-12.296,0-22.299,10.003-22.299,22.299s10.003,22.299,22.299,22.299s22.299-10.003,22.299-22.299
		S193.183,175.672,180.887,175.672z"/>
</g>
<g>
</g>
<g>
</g>
<g>
</g>
<g>
</g>
<g>
</g>
<g>
</g>
<g>
</g>
<g>
</g>
<g>
</g>
<g>
</g>
<g>
</g>
<g>
</g>
<g>
</g>
<g>
</g>
<g>
</g>
</svg>
